<mxfile host="app.diagrams.net" modified="2023-12-01T01:15:35.501Z" agent="Mozilla/5.0 (Windows NT 10.0; Win64; x64) AppleWebKit/537.36 (KHTML, like Gecko) Chrome/119.0.0.0 Safari/537.36" version="22.1.5" etag="1OU9HtfjLK1lP8QU1x6A" type="github">
  <diagram name="Page-1" id="S1W-4e1c-KFxjrJ9DP-e">
    <mxGraphModel>
      <root>
        <mxCell id="0" />
        <mxCell id="1" parent="0" />
      </root>
    </mxGraphModel>
  </diagram>
</mxfile>
